<?xml version="1.0" standalone="no"?>
<!DOCTYPE svg PUBLIC "-//W3C//DTD SVG 20010904//EN"
 "http://www.w3.org/TR/2001/REC-SVG-20010904/DTD/svg10.dtd">
<svg version="1.0" xmlns="http://www.w3.org/2000/svg"
 width="1080.000000pt" height="1080.000000pt" viewBox="0 0 1080.000000 1080.000000"
 preserveAspectRatio="xMidYMid meet">
<metadata>
Created by potrace 1.14, written by Peter Selinger 2001-2017
</metadata>
<g transform="translate(0.000000,1080.000000) scale(0.100000,-0.100000)"
fill="#000000" stroke="none">
<path d="M4930 9984 c-8 -2 -80 -13 -160 -25 -140 -20 -182 -27 -280 -47 -25
-6 -72 -15 -105 -22 -33 -6 -73 -15 -90 -20 -16 -5 -50 -14 -75 -21 -96 -25
-269 -78 -295 -89 -11 -5 -56 -21 -100 -36 -44 -15 -100 -36 -125 -47 -58 -25
-92 -40 -160 -68 -77 -32 -362 -177 -440 -224 -234 -140 -517 -339 -665 -467
-496 -429 -859 -889 -1140 -1443 -44 -88 -89 -180 -100 -205 -22 -50 -41 -69
-68 -70 -16 0 -17 -5 -11 -32 11 -47 8 -74 -11 -122 -23 -55 -31 -75 -45 -116
-7 -19 -16 -44 -20 -55 -5 -11 -16 -47 -25 -80 -9 -33 -21 -69 -25 -80 -4 -11
-13 -40 -20 -65 -7 -25 -16 -56 -20 -70 -11 -34 -28 -104 -41 -165 -5 -27 -15
-70 -20 -95 -16 -72 -26 -134 -53 -315 -25 -162 -26 -190 -26 -611 0 -449 6
-538 49 -769 6 -27 15 -77 21 -110 6 -33 15 -76 20 -95 5 -19 16 -69 25 -110
9 -41 20 -86 24 -100 5 -14 14 -43 20 -65 22 -79 63 -211 82 -263 38 -105 62
-168 76 -202 8 -19 19 -44 23 -55 51 -128 149 -330 225 -464 19 -35 35 -65 35
-67 0 -2 20 -35 45 -74 25 -39 45 -74 45 -79 0 -5 3 -11 8 -13 4 -1 38 -50 76
-108 60 -90 156 -223 202 -279 7 -9 39 -47 70 -86 153 -189 362 -400 590 -595
104 -90 490 -370 510 -370 2 0 28 -15 57 -34 77 -50 200 -118 297 -166 66 -33
247 -118 275 -130 11 -4 40 -17 65 -28 25 -10 79 -31 120 -46 41 -15 84 -31
95 -36 44 -18 175 -60 255 -82 19 -5 49 -13 65 -18 59 -17 111 -31 180 -46 39
-8 90 -20 115 -25 47 -11 55 -12 325 -53 163 -25 188 -26 605 -26 239 0 462 4
495 10 33 5 112 17 175 26 116 16 167 25 250 43 25 5 59 13 75 16 94 19 172
38 187 46 10 5 27 9 38 9 11 0 28 4 38 9 9 5 51 19 92 31 102 30 161 49 185
60 11 4 65 25 120 46 133 50 223 89 375 164 176 87 257 132 398 222 551 348
1012 788 1359 1298 51 74 97 140 103 147 5 7 10 15 10 17 0 3 20 37 45 76 25
39 45 72 45 74 0 3 19 37 43 78 44 76 130 246 167 333 12 28 30 68 40 90 10
22 30 72 45 110 14 39 30 79 35 90 4 11 13 36 20 55 7 19 16 44 20 55 5 11 16
47 25 80 10 33 25 85 35 115 31 98 52 177 71 271 6 30 15 74 21 99 19 91 27
138 50 280 22 138 23 170 23 645 0 475 -1 507 -23 645 -27 168 -39 231 -62
335 -5 22 -16 74 -25 115 -9 41 -20 86 -25 100 -4 14 -13 45 -20 70 -7 25 -16
54 -20 65 -4 11 -16 47 -25 80 -9 33 -20 69 -25 80 -4 11 -13 36 -20 55 -7 19
-18 49 -25 65 -7 17 -16 41 -20 55 -8 26 -25 69 -55 135 -11 22 -28 63 -40 90
-37 87 -123 257 -167 333 -24 41 -43 75 -43 78 0 17 -270 420 -334 499 -23 28
-53 66 -67 85 -50 66 -201 235 -312 348 -188 191 -433 399 -642 544 -94 65
-333 218 -341 218 -3 0 -19 9 -34 20 -30 21 -383 200 -394 200 -4 0 -28 9 -54
21 -83 37 -105 46 -207 84 -55 20 -109 40 -120 44 -22 9 -58 20 -150 46 -33 9
-69 21 -80 25 -11 5 -31 11 -45 15 -14 3 -49 12 -77 20 -29 8 -79 19 -110 25
-32 6 -78 15 -103 21 -67 15 -137 28 -210 38 -36 6 -112 17 -169 25 -84 13
-194 16 -555 15 -248 -1 -458 -3 -466 -5z m835 -330 c11 -3 61 -9 110 -15 145
-15 197 -23 400 -64 44 -9 97 -19 118 -22 20 -3 40 -9 43 -14 3 -5 16 -9 29
-9 13 0 34 -4 47 -9 13 -5 50 -16 83 -25 115 -32 140 -40 150 -48 5 -4 18 -8
30 -8 12 0 25 -4 30 -8 6 -4 35 -16 65 -26 30 -10 64 -21 75 -26 11 -5 26 -10
34 -12 8 -3 -37 -31 -100 -64 l-114 -59 -327 -5 -326 -5 -39 -31 c-32 -26 -66
-86 -205 -364 -149 -296 -168 -339 -168 -382 0 -109 45 -146 245 -204 33 -9
64 -21 69 -26 6 -4 18 -8 28 -8 10 0 26 -4 36 -9 9 -6 69 -26 132 -46 101 -32
120 -35 152 -26 55 16 102 28 198 52 137 33 158 38 198 48 140 36 168 40 207
30 42 -11 146 -45 180 -59 46 -19 255 -79 310 -90 33 -6 76 -15 95 -20 19 -5
55 -11 80 -15 46 -6 118 -20 180 -35 19 -5 60 -13 90 -19 30 -6 87 -17 127
-26 92 -19 176 -19 213 0 29 15 300 195 331 220 19 15 42 -6 138 -125 29 -36
60 -74 69 -85 9 -11 37 -49 62 -84 25 -35 57 -80 72 -100 15 -20 31 -43 35
-51 4 -8 24 -39 45 -69 35 -50 36 -55 20 -67 -9 -7 -25 -14 -35 -14 -9 0 -25
-4 -35 -9 -9 -5 -55 -21 -102 -36 -47 -14 -94 -30 -105 -34 -11 -5 -72 -25
-135 -45 -63 -20 -124 -41 -135 -45 -11 -5 -51 -19 -90 -30 -68 -21 -73 -21
-180 -5 -60 8 -135 20 -165 25 -30 5 -80 14 -110 19 -30 5 -71 12 -90 15 -19
3 -78 13 -130 21 -52 8 -121 20 -152 26 l-57 12 -131 195 c-152 229 -146 220
-187 249 l-31 22 -512 0 -511 0 -42 -29 c-23 -16 -146 -134 -273 -263 -248
-249 -270 -280 -260 -353 4 -22 13 -92 22 -155 19 -140 33 -237 44 -310 14
-91 28 -189 45 -315 35 -252 47 -322 62 -350 28 -50 66 -72 303 -170 36 -15
83 -35 105 -45 22 -10 69 -30 105 -45 36 -15 93 -40 128 -56 35 -16 65 -29 68
-29 4 0 25 -9 136 -59 26 -11 51 -21 54 -21 4 0 32 -12 63 -26 31 -14 65 -30
76 -34 11 -5 48 -21 82 -35 65 -28 117 -30 208 -7 22 6 72 18 110 27 103 24
136 32 180 45 22 6 67 17 100 25 33 7 66 15 73 17 7 1 84 -44 171 -102 l159
-105 4 -290 3 -290 303 -602 302 -602 0 -301 c0 -248 3 -307 15 -338 10 -23
78 -100 182 -204 l166 -167 -44 -56 c-24 -31 -56 -72 -70 -90 -122 -158 -390
-424 -599 -595 -140 -115 -389 -288 -520 -362 -25 -14 -63 -36 -85 -48 -77
-44 -301 -156 -370 -184 -38 -16 -88 -37 -110 -47 -22 -9 -74 -29 -115 -44
-41 -14 -83 -30 -92 -36 -10 -5 -27 -9 -37 -9 -11 0 -23 -4 -26 -10 -3 -5 -16
-10 -29 -10 -12 0 -26 -3 -30 -7 -8 -9 -90 -31 -144 -40 -18 -3 -35 -9 -38
-14 -3 -5 -18 -9 -34 -9 -16 0 -31 -4 -34 -9 -3 -4 -25 -11 -48 -14 -24 -3
-77 -13 -118 -22 -117 -25 -240 -45 -405 -66 -210 -26 -708 -26 -925 1 -247
30 -455 68 -600 108 -19 6 -62 17 -95 26 -108 29 -170 49 -180 58 -5 4 -16 8
-24 8 -22 0 -183 60 -336 126 -80 34 -302 143 -365 179 -36 21 -85 49 -110 63
-25 14 -108 66 -185 117 -536 353 -1017 861 -1325 1400 -19 33 -43 74 -52 90
-18 31 -163 325 -178 360 -26 62 -43 102 -50 120 -4 11 -12 31 -18 45 -26 62
-62 167 -62 181 0 8 -4 19 -8 24 -5 6 -14 30 -21 55 -25 85 -39 135 -46 160
-3 14 -11 41 -16 60 -28 97 -66 285 -90 445 -58 383 -58 857 0 1240 25 165 61
344 91 450 6 22 16 59 21 83 11 42 29 49 29 11 0 -10 4 -27 9 -37 5 -9 26 -69
46 -132 44 -141 57 -169 87 -196 13 -11 191 -132 396 -269 l373 -248 -89 -91
c-49 -50 -97 -105 -106 -123 -14 -27 -16 -71 -16 -297 l0 -265 166 -333 c193
-386 201 -397 310 -417 38 -7 89 -17 114 -22 25 -6 65 -14 90 -19 25 -5 65
-13 90 -19 55 -11 210 -40 265 -49 l40 -7 5 -735 5 -735 28 -65 c48 -108 54
-124 67 -160 15 -41 30 -78 57 -140 11 -25 28 -67 38 -95 9 -27 23 -63 30 -80
8 -16 27 -66 45 -110 64 -164 79 -180 206 -221 44 -14 88 -29 99 -33 29 -13
68 -26 165 -56 47 -14 96 -31 109 -38 13 -6 49 -11 81 -11 67 1 105 23 142 82
23 37 23 40 25 402 l3 365 27 20 c16 10 30 22 33 25 3 3 119 90 257 194 212
159 256 196 273 232 19 38 21 59 20 249 l-2 208 295 296 c163 165 299 309 305
326 6 17 16 57 22 90 12 68 25 130 39 195 5 25 17 83 26 130 9 47 21 108 26
135 6 28 12 64 15 80 3 17 9 46 14 65 33 130 33 143 10 193 -13 27 -39 60 -58
75 l-35 27 -288 3 -287 3 -40 62 c-39 61 -200 328 -240 397 -86 150 -149 244
-178 268 l-34 27 -517 5 -518 5 -140 280 c-149 299 -161 314 -240 329 -69 13
-110 -8 -219 -114 l-101 -98 3 106 c2 82 -1 116 -13 147 -11 26 -67 91 -156
180 l-139 141 0 121 c0 107 2 122 18 127 9 3 71 13 137 22 66 8 145 20 175 24
30 5 91 14 135 20 44 6 105 15 135 20 30 4 109 15 175 24 169 21 179 25 320
110 70 42 129 76 132 76 2 0 23 13 46 29 23 15 62 39 87 53 99 57 411 248 423
260 15 14 87 126 87 133 0 3 25 44 55 90 30 47 55 88 55 90 0 2 36 63 80 136
44 72 80 133 80 135 0 2 24 41 53 87 48 74 58 83 98 95 130 38 155 46 163 54
6 4 18 8 28 8 10 0 26 4 36 9 9 6 47 19 84 31 68 22 113 55 135 100 21 42 173
512 173 534 0 34 -41 105 -74 130 -27 20 -65 31 -174 52 -13 3 -69 12 -125 20
-56 9 -126 20 -154 25 -29 5 -77 13 -105 18 -54 9 -218 35 -318 51 -70 10 -93
20 -154 64 -33 23 -45 37 -35 40 8 2 34 9 59 16 25 6 61 16 80 21 19 6 46 13
60 15 14 3 34 9 45 14 11 5 34 11 50 14 17 3 66 13 110 22 44 9 103 20 130 24
28 5 82 14 120 20 136 22 232 31 390 39 162 7 553 4 590 -5z m-1836 -457 c184
-123 205 -133 293 -146 194 -30 482 -78 601 -101 58 -12 67 -22 48 -58 -6 -9
-19 -47 -31 -83 -24 -77 0 -63 -254 -148 -135 -45 -186 -67 -207 -88 -16 -15
-125 -190 -244 -388 -119 -198 -224 -367 -233 -376 -9 -9 -169 -107 -355 -218
l-338 -202 -137 -20 c-75 -11 -168 -24 -207 -29 -38 -6 -99 -14 -135 -19 -36
-5 -148 -21 -250 -36 -102 -15 -214 -30 -250 -35 -107 -14 -154 -40 -186 -102
-21 -40 -20 -557 0 -596 8 -15 76 -88 150 -162 l136 -135 0 -122 c0 -68 -1
-123 -3 -123 -1 0 -140 91 -307 203 l-305 203 -116 347 -116 346 91 183 c224
448 459 773 815 1128 372 371 755 640 1210 851 104 49 127 56 145 47 12 -6 95
-61 185 -121z m3518 -43 c270 -148 502 -310 753 -524 150 -128 170 -149 150
-160 -8 -5 -60 -38 -114 -74 -55 -36 -111 -66 -124 -66 -12 0 -55 7 -95 15
-40 9 -97 20 -127 26 -30 6 -71 14 -90 19 -19 4 -100 20 -180 35 -98 18 -228
54 -402 111 -141 46 -267 84 -280 84 -13 0 -155 -33 -316 -73 l-293 -74 -112
38 c-61 20 -113 41 -114 46 -2 5 35 86 82 181 l86 172 277 0 277 0 265 134
c146 73 275 134 287 135 12 0 44 -11 70 -25z m-451 -1472 c6 -4 67 -90 134
-192 68 -102 133 -196 144 -208 29 -33 73 -55 126 -62 25 -4 104 -17 175 -29
72 -11 159 -26 195 -32 75 -12 142 -24 220 -38 352 -64 303 -70 797 97 296
100 415 136 422 128 5 -6 33 -60 61 -120 95 -204 194 -462 240 -631 22 -78 62
-234 69 -270 33 -156 42 -202 55 -295 8 -58 21 -150 28 -205 17 -135 17 -725
0 -860 -25 -187 -42 -310 -51 -350 -5 -22 -15 -67 -22 -100 -11 -53 -56 -235
-79 -320 -69 -255 -227 -629 -373 -885 -49 -87 -115 -199 -124 -210 -2 -2 -55
47 -118 110 l-115 115 0 292 0 292 -305 611 -305 610 0 299 c0 311 -3 336 -43
379 -12 13 -133 98 -270 189 -179 119 -258 166 -285 170 -21 2 -74 -5 -122
-17 -47 -12 -102 -26 -122 -31 -46 -11 -83 -20 -218 -54 -155 -38 -166 -39
-202 -22 -18 8 -109 48 -203 87 -93 40 -190 82 -215 93 -25 11 -65 28 -90 39
-25 10 -61 26 -80 34 -19 9 -96 41 -170 73 -155 66 -137 38 -164 251 -16 118
-21 152 -45 310 -5 36 -15 103 -22 150 -6 47 -17 121 -24 165 l-13 80 181 183
182 182 370 0 c203 0 375 -4 381 -8z m-3978 -2010 c114 -229 114 -228 159
-260 l31 -22 515 0 515 0 203 -337 c242 -404 231 -389 279 -413 36 -18 60 -20
260 -20 203 0 220 -1 220 -18 0 -9 -11 -73 -25 -142 -14 -69 -30 -150 -36
-180 -6 -30 -15 -71 -20 -91 -5 -20 -9 -47 -9 -60 0 -17 -82 -105 -310 -334
-171 -171 -311 -314 -312 -316 -1 -2 -5 -105 -8 -229 l-5 -225 -275 -207
c-151 -114 -285 -218 -297 -232 -38 -44 -43 -89 -43 -370 0 -210 -3 -267 -12
-264 -7 3 -45 15 -85 27 l-71 22 -43 107 c-41 104 -62 156 -80 197 -5 11 -40
100 -79 199 l-70 179 0 768 0 769 -22 35 c-29 43 -77 70 -153 85 -33 7 -78 16
-100 20 -22 5 -62 13 -90 18 -27 5 -97 19 -155 31 -58 11 -130 26 -160 32 -30
6 -73 15 -96 21 l-40 10 -128 256 -127 257 1 170 0 170 277 277 c153 153 280
278 283 278 3 0 51 -94 108 -208z"/>
</g>
</svg>
